<?xml version="1.0" encoding="UTF-8"?>
<svg version="1.1" xmlns="http://www.w3.org/2000/svg" width="1081" height="1081">
<path d="M0 0 C1.73030671 -0.00300149 3.46061276 -0.00640625 5.19091797 -0.01017761 C9.84459831 -0.01892533 14.4982602 -0.02135191 19.15194798 -0.0219934 C22.0763041 -0.02270966 25.00065569 -0.02485482 27.92501068 -0.02749062 C38.17592154 -0.03671652 48.4268195 -0.04082934 58.67773438 -0.04003906 C68.15239605 -0.03944038 77.62700041 -0.0499581 87.10164762 -0.06578273 C95.29937032 -0.07897437 103.49707457 -0.08421808 111.69480777 -0.08358365 C116.56250199 -0.08333187 121.43014527 -0.08600162 126.29782867 -0.0967617 C152.70533257 -0.15110972 178.96947805 0.17876587 205.16699219 3.95776367 C206.36541748 4.12880615 207.56384277 4.29984863 208.79858398 4.47607422 C233.20998781 8.13163479 256.14934842 15.48543477 274.10449219 33.14526367 C274.80574219 33.83362305 275.50699219 34.52198242 276.22949219 35.23120117 C301.75551891 62.05347144 302.44000219 103.58773351 302.10449219 138.14526367 C286.26449219 138.14526367 270.42449219 138.14526367 254.10449219 138.14526367 C254.00136719 134.63901367 253.89824219 131.13276367 253.79199219 127.52026367 C252.98672694 106.59485051 251.7149654 83.73441722 239.10449219 66.14526367 C238.70101563 65.52522461 238.29753906 64.90518555 237.88183594 64.26635742 C228.79852662 51.84972359 210.96513138 47.77880716 196.72949219 45.45776367 C169.04978947 41.29322535 140.51573108 41.98557761 112.58121824 42.01093817 C108.79166321 42.01354047 105.0021101 42.01110317 101.21255493 42.009552 C94.8610998 42.00775299 88.50965645 42.01007644 82.15820312 42.01489258 C74.89804179 42.02033547 67.63790856 42.01856302 60.37774789 42.01306617 C54.05152572 42.008475 47.72531181 42.00791323 41.3990885 42.01050484 C37.66119976 42.01203451 33.92332406 42.01235567 30.18543625 42.00896835 C-32.91706624 38.79674926 -32.91706624 38.79674926 -88.95800781 62.39526367 C-106.77761778 82.28534261 -109.27558513 111.64161802 -110.89550781 137.14526367 C-110.9830835 138.39573486 -111.07065918 139.64620605 -111.16088867 140.93457031 C-112.20790416 157.36119359 -112.08285456 173.82406124 -112.08081055 190.27636719 C-112.0807297 193.71099155 -112.08761902 197.14548134 -112.10131836 200.58007812 C-114.87569467 269.73604236 -114.87569467 269.73604236 -87.33300781 329.93041992 C-59.38549945 355.32503088 -11.93676673 350.46113517 23.07413888 350.41391468 C28.10445621 350.40876546 33.13476713 350.41357062 38.16508484 350.41668701 C46.60771008 350.42030216 55.05030007 350.41559365 63.49291992 350.40600586 C73.1739718 350.39513675 82.85493928 350.39864571 92.53598911 350.40965867 C100.92922528 350.41881491 109.32243644 350.41997629 117.71567601 350.41478133 C122.69277681 350.41170554 127.66983833 350.41112791 132.64693642 350.41785431 C187.82985493 353.26001488 187.82985493 353.26001488 236.10449219 332.14526367 C254.06127759 312.83556978 253.26854666 281.66633257 254.10449219 257.14526367 C269.94449219 257.14526367 285.78449219 257.14526367 302.10449219 257.14526367 C302.61007616 290.85086215 301.22309986 327.09776114 280.10449219 355.14526367 C279.56179688 355.87229492 279.01910156 356.59932617 278.45996094 357.34838867 C260.15911487 379.96841253 227.84260796 387.10939176 200.35839844 390.02026367 C174.18798387 392.68701873 148.19554052 393.30849591 121.91525769 393.31252074 C119.26960818 393.31323956 116.62396362 393.31538931 113.97831535 393.31801796 C104.69232742 393.32722587 95.40635368 393.33135875 86.12036133 393.33056641 C77.55562922 393.3299674 68.99096044 393.34049624 60.42624432 393.35631007 C52.99784546 393.36952174 45.56946695 393.37474465 38.14105648 393.374111 C33.73784482 393.3738599 29.33468956 393.37648995 24.93148994 393.38728905 C-0.66122031 393.44572146 -26.28950558 393.19355337 -51.64550781 389.27026367 C-52.79760742 389.09736816 -53.94970703 388.92447266 -55.13671875 388.74633789 C-84.32371809 384.22608231 -114.31822266 374.69749821 -132.89550781 350.14526367 C-147.77415155 328.76201493 -153.41104972 304.50228967 -157.08300781 279.08276367 C-157.23801758 278.02839111 -157.39302734 276.97401855 -157.55273438 275.88769531 C-160.89678847 250.96939241 -161.22347292 225.94568985 -161.15625 200.85302734 C-161.14486556 196.57003851 -161.15163749 192.28729858 -161.16312695 188.00431824 C-161.22209067 162.09839449 -160.69740842 136.21974274 -157.08300781 110.52026367 C-156.91269043 109.28646973 -156.74237305 108.05267578 -156.56689453 106.78149414 C-152.10906491 76.00200628 -142.28117332 45.01548243 -116.89550781 25.14526367 C-108.11102013 18.91480565 -98.96496045 14.73842305 -88.89550781 11.14526367 C-87.89519531 10.7765918 -86.89488281 10.40791992 -85.86425781 10.02807617 C-58.85941253 0.86064185 -28.28311668 -0.00995931 0 0 Z " fill="#E0DCDC" transform="translate(469.8955078125,343.854736328125)"/>
<path d="M0 0 C0.82057377 -0.00538554 1.64114753 -0.01077108 2.48658717 -0.01631981 C5.21628105 -0.03054433 7.94548622 -0.02350937 10.67520142 -0.01637268 C12.64043058 -0.02207916 14.60565643 -0.0290445 16.57087708 -0.03717041 C21.89533309 -0.05508698 27.21962415 -0.05393613 32.54410124 -0.04822803 C36.99479499 -0.04513376 41.44545716 -0.05123135 45.89614642 -0.05726677 C56.39918504 -0.07130571 66.90214232 -0.06975617 77.40518188 -0.05836487 C88.2274887 -0.0468864 99.04954762 -0.0609563 109.87182176 -0.08776134 C119.17568941 -0.10993966 128.47947937 -0.11655084 137.78337157 -0.11068493 C143.33476106 -0.10731902 148.88599168 -0.10970616 154.43735886 -0.12693596 C159.65939875 -0.14243672 164.88107233 -0.13841466 170.10309792 -0.11963081 C172.01462167 -0.1159535 173.92617276 -0.11902826 175.83767128 -0.1295166 C187.77079183 -0.18997133 198.77965322 -0.16707773 207.95287514 8.60584259 C215.37220255 17.29384515 215.19296521 26.80453485 215.12149048 37.61228943 C215.12827579 39.34136879 215.13718403 41.07044092 215.14804077 42.79949951 C215.1707322 47.4710995 215.16204 52.1421441 215.14614534 56.81375313 C215.13343349 61.71646175 215.14524109 66.61912472 215.15307617 71.52183533 C215.16215738 79.75308212 215.150225 87.98410415 215.12637329 96.21531677 C215.09916497 105.71422828 215.10798022 115.21260308 215.13550532 124.7115016 C215.158239 132.88593606 215.16137568 141.06020951 215.14831197 149.23466539 C215.14054085 154.10865093 215.13941125 158.98238468 215.15599442 163.85635376 C215.17050207 168.43998361 215.16030323 173.02292555 215.13152313 177.60648155 C215.1249458 179.28256275 215.12675222 180.95870245 215.13783646 182.6347599 C215.19914989 192.85275325 214.79145343 201.61070157 207.51415443 209.51766205 C200.96440359 215.90962715 193.76686979 217.84570585 184.86637878 217.77536011 C184.03693235 217.78074565 183.20748591 217.78613118 182.35290474 217.79167992 C179.59323954 217.8059064 176.83405762 217.79886901 174.07437134 217.79173279 C172.08781552 217.79743912 170.10126297 217.8044044 168.11471558 217.81253052 C162.73247783 217.83044754 157.35040325 217.82929629 151.96814466 217.82358813 C147.47013553 217.8204943 142.97215766 217.82659088 138.47415298 217.83262688 C127.86088544 217.84666561 117.2476984 217.84511611 106.63442993 217.83372498 C95.69508859 217.82224314 84.75599239 217.83632212 73.81668335 217.86312145 C64.41431853 217.88529083 55.01203059 217.89191306 45.60964149 217.88604504 C39.99848079 217.8826774 34.38747724 217.88507793 28.77633858 217.90229607 C23.49931104 217.91778284 18.22264623 217.91379022 12.94563293 217.89499092 C11.01272589 217.89130993 9.07979187 217.89439919 7.14690971 217.90487671 C-5.04178041 217.9658866 -14.58158339 217.71022002 -24.02157593 209.1025238 C-29.02269731 203.39994644 -30.64605775 196.87976409 -30.68611145 189.46398926 C-30.69119927 188.75527111 -30.69628709 188.04655296 -30.70152909 187.31635851 C-30.71725772 184.93526776 -30.72577988 182.55420739 -30.73422241 180.17308044 C-30.74376091 178.46799019 -30.75365207 176.76290187 -30.76387024 175.05781555 C-30.79526844 169.45034586 -30.81552972 163.84286131 -30.83407593 158.2353363 C-30.83737325 157.2805428 -30.84067057 156.3257493 -30.84406781 155.34202266 C-30.87485943 146.33187271 -30.9015603 137.3217194 -30.9184866 128.31153202 C-30.94036737 116.79969573 -30.98227731 105.2883274 -31.05192417 93.77667814 C-31.09926049 85.67628753 -31.12343335 77.57602269 -31.13068348 69.47549814 C-31.13562696 64.64144979 -31.15058227 59.80792871 -31.19042778 54.97403145 C-31.22747596 50.41923531 -31.2356447 45.86526354 -31.22242165 41.3103447 C-31.2224753 39.64635217 -31.2326513 37.98232143 -31.25417328 36.31846809 C-31.37739941 26.24627514 -30.54318734 17.91696017 -24.52548218 9.38768005 C-17.64977676 2.51439072 -9.53118016 -0.07617836 0 0 Z " fill="#E0DCDC" transform="translate(448.5254821777344,432.61231994628906)"/>
</svg>
