<?xml version="1.0" encoding="UTF-8"?>
<svg version="1.1" xmlns="http://www.w3.org/2000/svg" width="1081" height="1081">
<path d="M0 0 C1.2188942 -0.00960754 2.43778839 -0.01921509 3.69361877 -0.02911377 C5.65306679 -0.03548859 5.65306679 -0.03548859 7.65209961 -0.04199219 C8.32542265 -0.04481956 8.99874569 -0.04764694 9.69247246 -0.05056 C13.2606431 -0.06550848 16.82877382 -0.07476349 20.39697266 -0.07910156 C24.04566995 -0.08455884 27.69398893 -0.10854062 31.3425684 -0.13707352 C34.17995699 -0.15589128 37.01725824 -0.16091568 39.8547039 -0.16243744 C41.84239432 -0.16685936 43.83003761 -0.18541439 45.81764221 -0.20440674 C56.68837652 -0.17811728 68.52352722 0.30003911 76.74194336 8.16113281 C80.70473517 15.55834419 80.85136765 21.95431073 80.74194336 30.16113281 C76.45194336 30.16113281 72.16194336 30.16113281 67.74194336 30.16113281 C67.65944336 28.63488281 67.57694336 27.10863281 67.49194336 25.53613281 C66.99182322 20.76471632 66.13753782 17.73544277 62.74194336 14.16113281 C56.11962788 11.47589627 49.30370453 11.85520037 42.24975586 11.86035156 C40.94924286 11.85606644 39.64872986 11.85178131 38.30880737 11.84736633 C35.56365872 11.83993361 32.81863875 11.84017359 30.07348633 11.84545898 C26.57796005 11.85124628 23.08296491 11.83432679 19.58752632 11.81111431 C16.22491528 11.79272675 12.86241672 11.7965645 9.49975586 11.79785156 C8.25574005 11.78864182 7.01172424 11.77943207 5.73001099 11.76994324 C-2.03395566 11.81099696 -9.7347348 11.90883573 -15.69555664 17.41113281 C-23.31112644 30.81453566 -21.05903376 51.42437733 -19.44555664 66.34863281 C-19.37554443 67.04311523 -19.30553223 67.73759766 -19.23339844 68.453125 C-18.68796921 72.91009208 -17.71563981 76.39212783 -15.25805664 80.16113281 C-5.00957081 88.12207646 10.46264454 86.45884815 22.87695312 86.36694336 C25.43686867 86.34857955 27.99642151 86.34643539 30.55639648 86.34667969 C48.65098191 87.40490174 48.65098191 87.40490174 64.74194336 81.16113281 C69.42824489 73.45141094 68.20113644 65.35485047 68.74194336 56.16113281 C54.22194336 56.16113281 39.70194336 56.16113281 24.74194336 56.16113281 C24.74194336 52.86113281 24.74194336 49.56113281 24.74194336 46.16113281 C43.55194336 46.16113281 62.36194336 46.16113281 81.74194336 46.16113281 C81.74194336 81.73925781 81.74194336 81.73925781 75.17944336 89.76660156 C65.73493714 98.92879917 49.97847595 98.313229 37.70288086 98.32910156 C36.77835114 98.33242996 35.85382141 98.33575836 34.90127563 98.33918762 C32.95673107 98.34421543 31.01217801 98.34659724 29.06762695 98.34643555 C26.14511316 98.34861184 23.22298391 98.36678445 20.30053711 98.38574219 C-10.67097411 98.48037138 -10.67097411 98.48037138 -21.25805664 92.16113281 C-22.16555664 91.62488281 -23.07305664 91.08863281 -24.00805664 90.53613281 C-34.05325899 79.93286366 -33.61076322 64.96280914 -33.57373047 51.29223633 C-33.5705757 48.86331009 -33.59408757 46.43561212 -33.61938477 44.00683594 C-33.66970506 31.7271215 -33.60989803 18.0088264 -25.25805664 8.16113281 C-18.51639489 1.41947106 -9.18756245 0.05881261 0 0 Z " fill="#082C3C" transform="translate(630.258056640625,480.8388671875)"/>
<path d="M0 0 C2.66552973 -0.00217614 5.33063734 -0.02036606 7.99609375 -0.03930664 C16.56150811 -0.06777304 25.01886714 0.15638733 33.5390625 1.08374023 C34.27250885 1.16304276 35.0059552 1.24234528 35.7616272 1.3240509 C42.78700781 2.17876179 47.83861044 4.06368377 53.37890625 8.37280273 C59.71635014 16.52094488 60.7427486 25.13378885 60.56640625 35.18530273 C56.27640625 35.18530273 51.98640625 35.18530273 47.56640625 35.18530273 C47.45683594 34.23268555 47.34726563 33.28006836 47.234375 32.29858398 C47.07582031 31.04432617 46.91726562 29.79006836 46.75390625 28.49780273 C46.60308594 27.25643555 46.45226562 26.01506836 46.296875 24.73608398 C45.56801792 21.19313701 44.73994703 19.05042467 42.56640625 16.18530273 C31.72254064 10.45646807 17.28327575 12.02117036 5.27075195 12.05493164 C3.00269925 12.06030559 0.73484375 12.05494048 -1.53320312 12.04858398 C-19.04653058 11.40144052 -19.04653058 11.40144052 -35.43359375 16.18530273 C-42.62916541 25.08508874 -41.75479255 38.31561861 -41.68359375 49.18530273 C-41.69132813 50.36608398 -41.6990625 51.54686523 -41.70703125 52.76342773 C-41.90815135 69.04283854 -41.90815135 69.04283854 -34.68359375 82.93530273 C-27.47980068 86.93740999 -19.93770963 86.49193431 -11.90625 86.48608398 C-10.60336533 86.49036911 -9.30048065 86.49465424 -7.95811462 86.49906921 C-5.20876987 86.50650112 -2.4595536 86.50626215 0.28979492 86.50097656 C3.79438688 86.49518351 7.29845005 86.51212306 10.80295467 86.53532124 C14.17074091 86.55368595 17.5384141 86.54987163 20.90625 86.54858398 C22.15542709 86.55779373 23.40460419 86.56700348 24.69163513 86.57649231 C31.3528523 86.54127188 36.55677122 86.15957801 42.56640625 83.18530273 C45.76936897 79.47558324 46.17311428 75.65316737 46.75390625 70.87280273 C46.91246094 69.61854492 47.07101563 68.36428711 47.234375 67.07202148 C47.39873047 65.6430957 47.39873047 65.6430957 47.56640625 64.18530273 C51.85640625 64.18530273 56.14640625 64.18530273 60.56640625 64.18530273 C61.03602025 73.5775828 59.98520336 83.8495346 53.56640625 91.18530273 C43.81567279 98.81631153 32.76065717 98.34864487 20.9609375 98.38842773 C19.64534348 98.39412781 18.32974945 98.39982788 16.97428894 98.40570068 C14.1946881 98.41616447 11.41511577 98.42203686 8.63549805 98.42553711 C5.10667337 98.43100376 1.578238 98.4550118 -1.9504652 98.48350906 C-4.69516533 98.50231047 -7.43977505 98.50735029 -10.18453407 98.50887299 C-12.10745877 98.51329749 -14.03033472 98.53185575 -15.95317078 98.55084229 C-27.30010125 98.52241163 -39.13041787 97.30838787 -47.62109375 89.06030273 C-58.93433662 71.11515887 -57.60387921 41.8154704 -53.18359375 21.62280273 C-51.36215773 15.20818024 -48.83420281 10.300125 -43.80859375 5.87280273 C-30.28851953 -0.88723437 -14.73534053 -0.00134055 0 0 Z " fill="#082C3C" transform="translate(172.43359375,486.814697265625)"/>
<path d="M0 0 C1.50703995 -0.02882263 1.50703995 -0.02882263 3.04452515 -0.05822754 C4.67111557 -0.07097717 4.67111557 -0.07097717 6.33056641 -0.08398438 C7.44646149 -0.09538452 8.56235657 -0.10678467 9.71206665 -0.11853027 C12.07411912 -0.13743082 14.43622433 -0.15049848 16.79833984 -0.15820312 C20.41157971 -0.17762393 24.02254795 -0.23966477 27.63525391 -0.30273438 C29.92951122 -0.31579394 32.22378481 -0.32629508 34.51806641 -0.33398438 C35.59841156 -0.35867798 36.67875671 -0.38337158 37.7918396 -0.40881348 C44.87398468 -0.36676745 44.87398468 -0.36676745 47.86077881 1.37266541 C51.25535561 4.82626495 51.64761481 8.54875612 51.70056152 13.12489319 C51.68416626 13.97506516 51.667771 14.82523712 51.65087891 15.70117188 C51.65091919 16.59086166 51.65095947 17.48055145 51.65100098 18.39720154 C51.64565863 20.27065122 51.62813098 22.1441013 51.59912109 24.01733398 C51.55720687 26.87944202 51.55806131 29.7391987 51.56494141 32.6015625 C51.55444982 34.42644859 51.54151188 36.25132259 51.52587891 38.07617188 C51.52567749 38.92836807 51.52547607 39.78056427 51.52526855 40.65858459 C51.43271249 45.31846025 51.17985713 48.60715834 48.05712891 52.32226562 C45.0450021 54.17474192 42.77105589 54.57433846 39.26025391 54.58105469 C38.3124707 54.58735901 37.3646875 54.59366333 36.38818359 54.60015869 C35.37143555 54.59611023 34.3546875 54.59206177 33.30712891 54.58789062 C31.7317334 54.5907608 31.7317334 54.5907608 30.12451172 54.59368896 C27.90543376 54.5950491 25.6863478 54.59136465 23.46728516 54.58300781 C20.06996799 54.57230607 16.67317962 54.58290912 13.27587891 54.59570312 C11.11962774 54.5943815 8.9633769 54.59181905 6.80712891 54.58789062 C5.79038086 54.59193909 4.77363281 54.59598755 3.72607422 54.60015869 C2.30439941 54.59070221 2.30439941 54.59070221 0.85400391 54.58105469 C0.02223633 54.5794635 -0.80953125 54.57787231 -1.66650391 54.57623291 C-4.20835325 54.2926466 -5.78717082 53.68651152 -7.94287109 52.32226562 C-11.24852632 47.40495143 -11.38432211 43.09284751 -11.34130859 37.38085938 C-11.34561386 36.11291283 -11.34561386 36.11291283 -11.3500061 34.8193512 C-11.35203952 33.04012376 -11.34656039 31.2608736 -11.33398438 29.48168945 C-11.31789987 26.76462728 -11.33386748 24.04904794 -11.35302734 21.33203125 C-11.35104517 19.59830402 -11.34720204 17.86457772 -11.34130859 16.13085938 C-11.34738129 15.32241074 -11.35345398 14.5139621 -11.35971069 13.68101501 C-11.30255472 9.08105497 -10.92944608 6.04868672 -7.94287109 2.32226562 C-4.70590831 0.16429043 -3.74605451 0.05785149 0 0 Z " fill="#082C3C" transform="translate(154.94287109375,509.677734375)"/>
<path d="M0 0 C4.29 0 8.58 0 13 0 C13.33 9.24 13.66 18.48 14 28 C15.98 26.68 17.96 25.36 20 24 C27.14994498 21.16322281 34.96599021 21.66240945 42.52563477 21.68432617 C44.79687899 21.68747832 47.06680746 21.66400177 49.33789062 21.63867188 C59.7066747 21.59378813 70.82248054 21.79599476 79 29 C86.11783591 37.92711823 86.34267485 47.36721303 86.3125 58.375 C86.32861328 59.54289063 86.34472656 60.71078125 86.36132812 61.9140625 C86.36657081 71.26701247 85.43290373 80.72066157 79 88 C69.05176782 95.59875607 56.35784632 95.33114794 44.375 95.25 C43.22515625 95.25773438 42.0753125 95.26546875 40.890625 95.2734375 C30.90773463 95.25069743 22.4704144 94.5241833 14 89 C13.67 90.65 13.34 92.3 13 94 C8.71 94 4.42 94 0 94 C0 62.98 0 31.96 0 0 Z M16 38 C12.6810739 44.8527467 12.54510854 51.03051083 12.625 58.5625 C12.61339844 59.66013672 12.60179687 60.75777344 12.58984375 61.88867188 C12.61623388 69.18554195 12.94705939 74.86225549 18.25 80.3125 C25.52658093 84.77767466 33.52764188 84.34078818 41.76049805 84.31567383 C43.92873397 84.31251278 46.0956039 84.33602376 48.26367188 84.36132812 C60.14430195 84.46767142 60.14430195 84.46767142 70.375 79 C76.05526272 68.51336113 75.12733764 53.6282718 72.7578125 42.28125 C71.31494409 37.93776984 68.62249323 35.90138513 64.75 33.75 C51.92942375 30.2534792 26.03707726 28.22028369 16 38 Z " fill="#082C3C" transform="translate(343,483)"/>
<path d="M0 0 C2.39621812 0.00315324 4.79119022 -0.02033422 7.18725586 -0.0456543 C18.55160644 -0.09267767 31.00832574 -0.09638567 39.59936523 8.31567383 C43.59936523 18.31567383 43.59936523 18.31567383 43.59936523 40.31567383 C20.49936523 40.31567383 -2.60063477 40.31567383 -26.40063477 40.31567383 C-25.90063477 53.81567383 -25.90063477 53.81567383 -19.40063477 59.31567383 C-14.74419815 61.46782888 -10.23752897 61.6227233 -5.18579102 61.61645508 C-4.4118248 61.6207402 -3.63785858 61.62502533 -2.84043884 61.62944031 C-1.21085585 61.63515821 0.41875264 61.63570268 2.04833984 61.63134766 C4.52608234 61.62818758 7.00262938 61.65167772 9.48022461 61.67700195 C11.07071791 61.67927539 12.66121439 61.67997824 14.25170898 61.67895508 C14.98421371 61.68816483 15.71671844 61.69737457 16.47142029 61.7068634 C21.53745766 61.66183924 25.09880988 60.68525984 29.59936523 58.31567383 C30.83757947 56.34020352 30.83757947 56.34020352 31.03686523 54.12817383 C31.31530273 52.24098633 31.31530273 52.24098633 31.59936523 50.31567383 C35.55936523 50.31567383 39.51936523 50.31567383 43.59936523 50.31567383 C43.97898782 56.38963518 43.38081534 62.06654627 39.27514648 66.86254883 C30.62032688 74.5860099 18.43737037 73.50217402 7.57641602 73.50097656 C5.3690232 73.50315443 3.16213815 73.52132688 0.95483398 73.5402832 C-11.27788975 73.58970244 -23.9779592 73.59562327 -33.21313477 64.56567383 C-41.45429724 52.32166101 -40.71824462 35.57643084 -38.90454102 21.45239258 C-37.18875477 13.82344469 -34.5579658 8.5622363 -28.15063477 4.00317383 C-19.29456022 -0.39859295 -9.63881706 -0.02648835 0 0 Z M-24.40063477 16.31567383 C-26.88915016 21.29270462 -26.40063477 24.38166582 -26.40063477 30.31567383 C-7.26063477 30.31567383 11.87936523 30.31567383 31.59936523 30.31567383 C31.88137266 21.56767433 31.88137266 21.56767433 28.59936523 14.31567383 C16.61811134 7.12692149 -14.05327619 6.51291307 -24.40063477 16.31567383 Z " fill="#082C3C" transform="translate(479.400634765625,504.684326171875)"/>
<path d="M0 0 C0.80462677 -0.00428513 1.60925354 -0.00857025 2.43826294 -0.01298523 C4.12728949 -0.01868456 5.81634057 -0.0192616 7.50537109 -0.01489258 C10.05740188 -0.01173473 12.6082683 -0.0352393 15.16015625 -0.06054688 C24.97104541 -0.09840228 34.38384279 -0.03772263 43.1328125 4.98828125 C53.9679215 17.1367368 51.45755686 37.06242102 51.3203125 52.23828125 C51.31025404 54.19335475 51.3011333 56.1484333 51.29296875 58.10351562 C51.27120213 62.83606522 51.23683332 67.56836544 51.1953125 72.30078125 C46.9053125 72.30078125 42.6153125 72.30078125 38.1953125 72.30078125 C37.8653125 71.31078125 37.5353125 70.32078125 37.1953125 69.30078125 C36.1846875 69.77515625 35.1740625 70.24953125 34.1328125 70.73828125 C26.30244653 74.41375916 16.93664101 73.48415957 8.5078125 73.48828125 C6.5597168 73.50665039 6.5597168 73.50665039 4.57226562 73.52539062 C-17.85091396 73.55917744 -17.85091396 73.55917744 -24.8046875 67.30078125 C-29.9315281 61.89681413 -29.87431059 55.41103886 -29.8046875 48.30078125 C-29.27191628 42.43078409 -27.17774208 38.30166098 -22.8046875 34.30078125 C-12.96113413 29.40767511 -1.31651011 30.11882207 9.3828125 30.11328125 C10.60806641 30.10103516 11.83332031 30.08878906 13.09570312 30.07617188 C21.66300518 30.06262316 29.75359291 30.86963774 38.1953125 32.30078125 C38.07067627 31.35162842 37.94604004 30.40247559 37.81762695 29.42456055 C37.52034505 27.16064453 37.22306315 24.89672852 36.92578125 22.6328125 C36.0566879 18.66844552 34.83466276 15.51511477 31.5078125 13.05078125 C20.13820087 9.36333964 0.31411283 8.94183856 -10.8046875 13.30078125 C-13.15824089 16.41863238 -13.15824089 16.41863238 -13.8046875 21.30078125 C-18.0946875 21.30078125 -22.3846875 21.30078125 -26.8046875 21.30078125 C-26.31506249 13.95640612 -25.93408417 9.522219 -20.6796875 4.11328125 C-14.49375351 0.2134533 -7.1504807 -0.0086865 0 0 Z M-14.8046875 43.30078125 C-16.76570714 46.08873689 -17.07772387 48.43747069 -17.0546875 51.80078125 C-17.05984375 52.55359375 -17.065 53.30640625 -17.0703125 54.08203125 C-16.76524479 56.63024391 -16.23341174 58.16673745 -14.8046875 60.30078125 C-4.54586095 67.05287516 19.56440624 64.28977988 31.1953125 62.30078125 C34.78751791 61.13831928 34.78751791 61.13831928 37.1953125 59.30078125 C38.4015377 55.68210566 38.30348168 52.37571874 38.2578125 48.61328125 C38.25330078 47.91138672 38.24878906 47.20949219 38.24414062 46.48632812 C38.23238177 44.75777587 38.21444704 43.0292676 38.1953125 41.30078125 C31.45096045 41.2500342 24.70665773 41.21502785 17.9621582 41.19091797 C15.66819417 41.18086597 13.37424293 41.16722235 11.08032227 41.14990234 C7.78138062 41.12561916 4.48260853 41.11429002 1.18359375 41.10546875 C0.15945877 41.09514618 -0.86467621 41.08482361 -1.91984558 41.07418823 C-3.36077324 41.07396164 -3.36077324 41.07396164 -4.83081055 41.07373047 C-6.09322823 41.06706863 -6.09322823 41.06706863 -7.38114929 41.06027222 C-10.17554628 41.33758483 -12.28330966 42.07790986 -14.8046875 43.30078125 Z " fill="#082C3C" transform="translate(852.8046875,504.69921875)"/>
<path d="M0 0 C1.2161776 -0.00287018 1.2161776 -0.00287018 2.45692444 -0.00579834 C4.16033237 -0.00715058 5.86375094 -0.0035218 7.56713867 0.00488281 C10.14981654 0.01558217 12.73179674 0.00496198 15.31445312 -0.0078125 C16.98047026 -0.00649046 18.64648697 -0.00392716 20.3125 0 C21.07215561 -0.00404846 21.83181122 -0.00809692 22.61448669 -0.01226807 C30.63343884 0.05657972 37.85074326 1.0791842 44.22265625 6.265625 C51.87781612 14.34607152 51.3734933 25.00310924 51.3203125 35.44921875 C51.31889755 36.50472427 51.3174826 37.5602298 51.31602478 38.64772034 C51.31045347 41.99955143 51.29790627 45.35131429 51.28515625 48.703125 C51.28013754 50.98372299 51.27557528 53.26432203 51.27148438 55.54492188 C51.26049344 61.11851564 51.24324863 66.69205877 51.22265625 72.265625 C46.93265625 72.265625 42.64265625 72.265625 38.22265625 72.265625 C38.22265625 71.275625 38.22265625 70.285625 38.22265625 69.265625 C37.04703125 69.74 35.87140625 70.214375 34.66015625 70.703125 C26.94449898 73.81646039 18.66229187 73.45192686 10.48144531 73.45092773 C8.49149451 73.45310439 6.50158341 73.47159166 4.51171875 73.49023438 C-16.70974473 73.52213036 -16.70974473 73.52213036 -24.77734375 67.265625 C-29.60317065 61.70730651 -29.37321882 54.87383303 -29.15625 47.83984375 C-28.47809272 41.4427931 -26.84562684 37.97420668 -21.90234375 33.890625 C-6.80834396 26.82800812 22.62755574 27.06725816 38.22265625 32.265625 C37.99317814 30.03425237 37.73820069 27.80549344 37.47265625 25.578125 C37.26382813 23.71607422 37.26382813 23.71607422 37.05078125 21.81640625 C36.09559711 17.72082896 35.43162939 15.99718956 32.22265625 13.265625 C25.67916996 10.98436126 18.70605033 10.93940651 11.84765625 11.015625 C10.47891357 11.03012695 10.47891357 11.03012695 9.08251953 11.04492188 C-1.09431053 10.83957222 -1.09431053 10.83957222 -10.77734375 13.265625 C-12.75291502 16.0001728 -13.12020601 17.87041332 -13.77734375 21.265625 C-17.73734375 21.265625 -21.69734375 21.265625 -25.77734375 21.265625 C-26.23395826 11.2201058 -26.23395826 11.2201058 -22.77734375 6.265625 C-16.05749483 0.63970498 -8.40705806 -0.04468499 0 0 Z M-14.77734375 44.265625 C-17.29524693 49.18698122 -16.89495297 53.02145865 -15.77734375 58.265625 C-14.12234753 60.54727028 -13.02750785 61.19160493 -10.30859375 61.99609375 C2.92250697 63.99098909 25.99679548 67.29826389 37.22265625 59.265625 C38.81677909 56.07737932 38.3244036 52.63665838 38.28515625 49.140625 C38.28064453 48.38652344 38.27613281 47.63242187 38.27148438 46.85546875 C38.25969124 44.99215373 38.24175567 43.12887945 38.22265625 41.265625 C31.4783451 41.18950489 24.73414491 41.13699568 17.98950195 41.10083008 C15.69551453 41.08575192 13.40155588 41.0652863 11.10766602 41.03930664 C7.8086842 41.00288142 4.51008385 40.98588869 1.2109375 40.97265625 C0.18680252 40.95717239 -0.83733246 40.94168854 -1.89250183 40.92573547 C-8.85670612 40.85913964 -8.85670612 40.85913964 -14.77734375 44.265625 Z " fill="#082C3C" transform="translate(757.77734375,504.734375)"/>
<path d="M0 0 C4.62 0 9.24 0 14 0 C19.77711461 9.93663712 25.26128643 20.00996787 30.69238281 30.13964844 C35.70406314 39.47799821 40.81667705 48.75600929 46 58 C48.89267308 54.5287923 50.67424181 50.67461998 52.51171875 46.5859375 C53.00626556 45.50064758 53.00626556 45.50064758 53.51080322 44.39343262 C54.57440109 42.05605697 55.63101599 39.71559847 56.6875 37.375 C57.41246302 35.77863652 58.13780503 34.18244511 58.86352539 32.58642578 C62.92100326 23.65197183 66.96044915 14.70856218 70.87963867 5.71240234 C72.89816185 1.10183815 72.89816185 1.10183815 74 0 C76.53049402 -0.07313567 79.03304837 -0.09247527 81.5625 -0.0625 C82.62887695 -0.05573242 82.62887695 -0.05573242 83.71679688 -0.04882812 C85.47790013 -0.03700864 87.23896036 -0.01907263 89 0 C84.73121207 10.89824042 79.54183698 21.32048788 74.375 31.8125 C72.57649629 35.47576465 70.78024622 39.14013171 68.984375 42.8046875 C68.32950607 44.13985664 68.32950607 44.13985664 67.66140747 45.5019989 C63.83823704 53.30643875 60.08432054 61.14261586 56.42333984 69.0246582 C47.32346567 88.35062859 47.32346567 88.35062859 37.34375 91.9609375 C29.86783194 94.10534557 22.73474108 94.3368355 15 94 C15 90.37 15 86.74 15 83 C16.00160156 82.97421875 17.00320313 82.9484375 18.03515625 82.921875 C28.24256049 82.70515974 28.24256049 82.70515974 37 78 C38.62455376 75.71975286 39.77820721 73.541329 41 71 C40.01 71 39.02 71 38 71 C37.59386475 70.26289795 37.18772949 69.5257959 36.76928711 68.76635742 C29.17293713 54.98220281 21.56966082 41.20186503 13.9375 27.4375 C13.34380615 26.36459717 12.7501123 25.29169434 12.13842773 24.1862793 C8.63642995 17.87716756 5.03320897 11.64875455 1.28735352 5.48071289 C0 3 0 3 0 0 Z " fill="#082C3C" transform="translate(243,506)"/>
<path d="M0 0 C1.16208984 0.01353516 1.16208984 0.01353516 2.34765625 0.02734375 C4.23190843 0.05060612 6.11599832 0.0864636 8 0.125 C8 3.755 8 7.385 8 11.125 C6.73285156 11.16238281 5.46570313 11.19976563 4.16015625 11.23828125 C2.46091069 11.30399793 0.7616932 11.37044323 -0.9375 11.4375 C-1.76830078 11.46005859 -2.59910156 11.48261719 -3.45507812 11.50585938 C-13.39055137 11.92119799 -13.39055137 11.92119799 -21.59222412 16.85646057 C-23.29314684 19.5973871 -23.39416781 21.23509591 -23.43237305 24.44433594 C-23.45216721 25.50513367 -23.47196136 26.5659314 -23.49235535 27.65887451 C-23.49874527 28.79753967 -23.50513519 29.93620483 -23.51171875 31.109375 C-23.52966995 32.28010559 -23.54762115 33.45083618 -23.56611633 34.65704346 C-23.62029866 38.39632567 -23.65414142 42.13547964 -23.6875 45.875 C-23.72066597 48.41017412 -23.75515494 50.94533131 -23.79101562 53.48046875 C-23.87603015 59.6952201 -23.94280419 65.90993288 -24 72.125 C-28.29 72.125 -32.58 72.125 -37 72.125 C-37 48.695 -37 25.265 -37 1.125 C-32.71 1.125 -28.42 1.125 -24 1.125 C-23.67 3.105 -23.34 5.085 -23 7.125 C-22.175 6.34125 -21.35 5.5575 -20.5 4.75 C-15.07227366 -0.40634002 -7.01214877 -0.15798602 0 0 Z " fill="#082C3C" transform="translate(956,504.875)"/>
<path d="M0 0 C1.16208984 0.01353516 1.16208984 0.01353516 2.34765625 0.02734375 C4.23190843 0.05060612 6.11599832 0.0864636 8 0.125 C8 3.755 8 7.385 8 11.125 C6.73285156 11.16238281 5.46570313 11.19976563 4.16015625 11.23828125 C2.46091069 11.30399793 0.7616932 11.37044323 -0.9375 11.4375 C-1.76830078 11.46005859 -2.59910156 11.48261719 -3.45507812 11.50585938 C-13.39055137 11.92119799 -13.39055137 11.92119799 -21.59222412 16.85646057 C-23.29314684 19.5973871 -23.39416781 21.23509591 -23.43237305 24.44433594 C-23.45216721 25.50513367 -23.47196136 26.5659314 -23.49235535 27.65887451 C-23.49874527 28.79753967 -23.50513519 29.93620483 -23.51171875 31.109375 C-23.52966995 32.28010559 -23.54762115 33.45083618 -23.56611633 34.65704346 C-23.62029866 38.39632567 -23.65414142 42.13547964 -23.6875 45.875 C-23.72066597 48.41017412 -23.75515494 50.94533131 -23.79101562 53.48046875 C-23.87603015 59.6952201 -23.94280419 65.90993288 -24 72.125 C-28.29 72.125 -32.58 72.125 -37 72.125 C-37 48.695 -37 25.265 -37 1.125 C-32.71 1.125 -28.42 1.125 -24 1.125 C-23.67 3.105 -23.34 5.085 -23 7.125 C-22.175 6.34125 -21.35 5.5575 -20.5 4.75 C-15.07227366 -0.40634002 -7.01214877 -0.15798602 0 0 Z " fill="#082C3C" transform="translate(575,504.875)"/>
</svg>
