<?xml version="1.0" encoding="UTF-8"?>
<svg version="1.1" xmlns="http://www.w3.org/2000/svg" width="1081" height="1081">
<path d="M0 0 C1.73030671 -0.00300149 3.46061276 -0.00640625 5.19091797 -0.01017761 C9.84459831 -0.01892533 14.4982602 -0.02135191 19.15194798 -0.0219934 C22.0763041 -0.02270966 25.00065569 -0.02485482 27.92501068 -0.02749062 C38.17592154 -0.03671652 48.4268195 -0.04082934 58.67773438 -0.04003906 C68.15239605 -0.03944038 77.62700041 -0.0499581 87.10164762 -0.06578273 C95.29937032 -0.07897437 103.49707457 -0.08421808 111.69480777 -0.08358365 C116.56250199 -0.08333187 121.43014527 -0.08600162 126.29782867 -0.0967617 C152.70533257 -0.15110972 178.96947805 0.17876587 205.16699219 3.95776367 C206.36541748 4.12880615 207.56384277 4.29984863 208.79858398 4.47607422 C233.20998781 8.13163479 256.14934842 15.48543477 274.10449219 33.14526367 C274.80574219 33.83362305 275.50699219 34.52198242 276.22949219 35.23120117 C301.75551891 62.05347144 302.44000219 103.58773351 302.10449219 138.14526367 C286.26449219 138.14526367 270.42449219 138.14526367 254.10449219 138.14526367 C254.00136719 134.63901367 253.89824219 131.13276367 253.79199219 127.52026367 C252.98672694 106.59485051 251.7149654 83.73441722 239.10449219 66.14526367 C238.70101563 65.52522461 238.29753906 64.90518555 237.88183594 64.26635742 C228.79852662 51.84972359 210.96513138 47.77880716 196.72949219 45.45776367 C169.04978947 41.29322535 140.51573108 41.98557761 112.58121824 42.01093817 C108.79166321 42.01354047 105.0021101 42.01110317 101.21255493 42.009552 C94.8610998 42.00775299 88.50965645 42.01007644 82.15820312 42.01489258 C74.89804179 42.02033547 67.63790856 42.01856302 60.37774789 42.01306617 C54.05152572 42.008475 47.72531181 42.00791323 41.3990885 42.01050484 C37.66119976 42.01203451 33.92332406 42.01235567 30.18543625 42.00896835 C-32.91706624 38.79674926 -32.91706624 38.79674926 -88.95800781 62.39526367 C-106.77761778 82.28534261 -109.27558513 111.64161802 -110.89550781 137.14526367 C-110.9830835 138.39573486 -111.07065918 139.64620605 -111.16088867 140.93457031 C-112.20790416 157.36119359 -112.08285456 173.82406124 -112.08081055 190.27636719 C-112.0807297 193.71099155 -112.08761902 197.14548134 -112.10131836 200.58007812 C-114.87569467 269.73604236 -114.87569467 269.73604236 -87.33300781 329.93041992 C-59.38549945 355.32503088 -11.93676673 350.46113517 23.07413888 350.41391468 C28.10445621 350.40876546 33.13476713 350.41357062 38.16508484 350.41668701 C46.60771008 350.42030216 55.05030007 350.41559365 63.49291992 350.40600586 C73.1739718 350.39513675 82.85493928 350.39864571 92.53598911 350.40965867 C100.92922528 350.41881491 109.32243644 350.41997629 117.71567601 350.41478133 C122.69277681 350.41170554 127.66983833 350.41112791 132.64693642 350.41785431 C187.82985493 353.26001488 187.82985493 353.26001488 236.10449219 332.14526367 C254.06127759 312.83556978 253.26854666 281.66633257 254.10449219 257.14526367 C269.94449219 257.14526367 285.78449219 257.14526367 302.10449219 257.14526367 C302.61007616 290.85086215 301.22309986 327.09776114 280.10449219 355.14526367 C279.56179688 355.87229492 279.01910156 356.59932617 278.45996094 357.34838867 C260.15911487 379.96841253 227.84260796 387.10939176 200.35839844 390.02026367 C174.18798387 392.68701873 148.19554052 393.30849591 121.91525769 393.31252074 C119.26960818 393.31323956 116.62396362 393.31538931 113.97831535 393.31801796 C104.69232742 393.32722587 95.40635368 393.33135875 86.12036133 393.33056641 C77.55562922 393.3299674 68.99096044 393.34049624 60.42624432 393.35631007 C52.99784546 393.36952174 45.56946695 393.37474465 38.14105648 393.374111 C33.73784482 393.3738599 29.33468956 393.37648995 24.93148994 393.38728905 C-0.66122031 393.44572146 -26.28950558 393.19355337 -51.64550781 389.27026367 C-52.79760742 389.09736816 -53.94970703 388.92447266 -55.13671875 388.74633789 C-84.32371809 384.22608231 -114.31822266 374.69749821 -132.89550781 350.14526367 C-147.77415155 328.76201493 -153.41104972 304.50228967 -157.08300781 279.08276367 C-157.23801758 278.02839111 -157.39302734 276.97401855 -157.55273438 275.88769531 C-160.89678847 250.96939241 -161.22347292 225.94568985 -161.15625 200.85302734 C-161.14486556 196.57003851 -161.15163749 192.28729858 -161.16312695 188.00431824 C-161.22209067 162.09839449 -160.69740842 136.21974274 -157.08300781 110.52026367 C-156.91269043 109.28646973 -156.74237305 108.05267578 -156.56689453 106.78149414 C-152.10906491 76.00200628 -142.28117332 45.01548243 -116.89550781 25.14526367 C-108.11102013 18.91480565 -98.96496045 14.73842305 -88.89550781 11.14526367 C-87.89519531 10.7765918 -86.89488281 10.40791992 -85.86425781 10.02807617 C-58.85941253 0.86064185 -28.28311668 -0.00995931 0 0 Z " fill="#082C3C" transform="translate(469.8955078125,343.854736328125)"/>
<path d="M0 0 C0.86742097 -0.00297112 1.73484193 -0.00594224 2.62854838 -0.0090034 C5.54646299 -0.01770194 8.46433662 -0.01919963 11.38226318 -0.02069092 C13.46984444 -0.02531829 15.55742485 -0.03034284 17.64500427 -0.03573608 C23.32486724 -0.04887031 29.00471837 -0.0553071 34.68459415 -0.05974674 C38.23201978 -0.06267597 41.77944216 -0.0667805 45.32686615 -0.07125092 C56.42259368 -0.08492887 67.51831382 -0.09459393 78.6140492 -0.09845281 C91.42849051 -0.10293369 104.24282517 -0.12048181 117.05723405 -0.1494534 C126.95796117 -0.17106156 136.85865826 -0.18115664 146.75940871 -0.18249393 C152.67461096 -0.18354262 158.58971299 -0.18946416 164.50489044 -0.20731354 C170.06986549 -0.22377905 175.63466482 -0.22595704 181.19965553 -0.21717453 C183.24144524 -0.21640333 185.28324433 -0.22075777 187.3250103 -0.23063278 C190.11426263 -0.24333107 192.90289064 -0.23748687 195.69213867 -0.22705078 C196.49847441 -0.23510719 197.30481015 -0.24316359 198.1355803 -0.25146413 C206.15615566 -0.18137023 211.77167927 2.44454721 217.60003662 8.14044189 C220.44778085 12.76793293 221.03256839 16.66804069 220.98771667 21.99003601 C220.99579498 23.14800449 220.99579498 23.14800449 221.00403649 24.32936627 C221.01830116 26.90644799 221.01121616 29.48301497 221.00408936 32.06011963 C221.0097937 33.91169649 221.01675821 35.76326984 221.02488708 37.61483765 C221.04282632 42.63757018 221.04164867 47.66012808 221.0359447 52.68288302 C221.032854 56.87777116 221.03894397 61.07262569 221.04498345 65.26750904 C221.05902954 75.16439075 221.05746663 85.06118614 221.04608154 94.95806885 C221.03459958 105.16464686 221.04867717 115.37096214 221.07547802 125.57750553 C221.09763617 134.34456114 221.10427214 143.11153429 221.09840161 151.87861592 C221.09503119 157.11303916 221.09745281 162.34729398 221.11465263 167.58169365 C221.1301215 172.50412249 221.12616677 177.42616213 221.10734749 182.34857559 C221.10366149 184.15331638 221.10677041 185.958086 221.11723328 187.76280022 C221.13044445 190.23026925 221.11889554 192.69645006 221.10124207 195.16386414 C221.11564958 196.23022406 221.11564958 196.23022406 221.13034815 197.31812662 C221.04248533 203.30378444 219.04894309 207.40342878 215.07269287 211.84747314 C209.06645539 216.55596403 204.41256294 217.4364 196.8903656 217.40786743 C196.01377425 217.41239854 195.13718289 217.41692966 194.23402816 217.42159808 C191.29697673 217.43425738 188.36011036 217.43262071 185.42303467 217.43096924 C183.31707521 217.43695354 181.21111795 217.44375886 179.10516357 217.45132446 C173.38401886 217.46900195 167.66293397 217.47368059 161.94176459 217.47495604 C157.16546045 217.47685502 152.38917025 217.48421259 147.61287147 217.49130023 C136.34336791 217.50758855 125.0738963 217.51246878 113.80438232 217.51104736 C102.18061375 217.5098459 90.55703085 217.53094774 78.93330926 217.56253469 C68.95269004 217.58868977 58.97213149 217.59941497 48.99147826 217.59813654 C43.0309772 217.59762667 37.0706411 217.60332389 31.11017418 217.62449265 C25.50325957 217.64386184 19.89666752 217.6440083 14.28974152 217.62945938 C12.23385713 217.62736854 10.17795263 217.63208851 8.12210274 217.6441803 C5.31124308 217.65963973 2.50149467 217.65031989 -0.30934143 217.63491821 C-1.11918198 217.64520534 -1.92902254 217.65549247 -2.76340371 217.66609132 C-9.30868484 217.58706428 -14.73901657 215.77109329 -19.45855713 211.10528564 C-19.91359619 210.43626221 -20.36863525 209.76723877 -20.83746338 209.07794189 C-21.54709229 208.07053955 -21.54709229 208.07053955 -22.27105713 207.04278564 C-24.65374728 203.02766419 -24.54830103 199.24866903 -24.5471344 194.73426819 C-24.55081109 193.97372515 -24.55448778 193.21318211 -24.55827588 192.42959231 C-24.56931579 189.87332249 -24.57315709 187.31709332 -24.57696533 184.76080322 C-24.58322978 182.93099844 -24.58987657 181.10119493 -24.59687805 179.27139282 C-24.6179241 173.25509528 -24.62828136 167.23879748 -24.63824463 161.22247314 C-24.64229207 159.15140965 -24.64640898 157.08034629 -24.65059471 155.00928307 C-24.66964804 145.2788301 -24.68387844 135.54838473 -24.69220668 125.81791669 C-24.70197824 114.58650713 -24.72829512 103.3552947 -24.76870757 92.12395459 C-24.79887195 83.44273518 -24.81367589 74.76157226 -24.81698769 66.08030146 C-24.81933794 60.89552009 -24.82829507 55.71094928 -24.85344887 50.52622414 C-24.87673994 45.64654452 -24.8809586 40.76721394 -24.87068748 35.88749313 C-24.87019226 34.09928794 -24.87650886 32.3110655 -24.89024353 30.52291298 C-24.9079867 28.07537078 -24.90084517 25.62907796 -24.88771057 23.18153381 C-24.89867982 22.47927557 -24.90964906 21.77701733 -24.92095071 21.05347854 C-24.85154486 15.6708525 -23.2794496 11.59696977 -20.39996338 7.14044189 C-18.14605713 5.08184814 -18.14605713 5.08184814 -15.83746338 3.70294189 C-15.07304932 3.22985596 -14.30863525 2.75677002 -13.52105713 2.26934814 C-9.04600551 -0.11240125 -4.93672674 -0.00524691 0 0 Z " fill="#082C3C" transform="translate(442.39996337890625,432.85955810546875)"/>
</svg>
